<svg width="107" height="128" viewBox="0 0 107 128" fill="none" xmlns="http://www.w3.org/2000/svg">
    <title>svelte-logo</title>
    <path fill-rule="evenodd" clip-rule="evenodd"
        d="M48.3652 12.9841C63.2166 3.5218 83.7566 7.9338 94.1566 22.8189C96.6246 26.2734 98.3782 30.186 99.3136 34.3272C100.249 38.4684 100.348 42.7547 99.6043 46.9346C98.8841 50.9262 97.362 54.7303 95.13 58.117C98.3866 64.328 99.4793 71.4475 98.2353 78.3493C97.5004 82.4468 95.9184 86.3458 93.5907 89.797C91.2629 93.2482 88.2404 96.1756 84.7167 98.3921L58.634 115.016C43.7849 124.478 23.2448 120.067 12.8426 105.181C10.375 101.726 8.62214 97.8137 7.68674 93.6725C6.75134 89.5314 6.65225 85.2452 7.3953 81.0653C8.11613 77.0734 9.63888 73.2691 11.8715 69.8824C8.61328 63.6721 7.5197 56.5524 8.7639 49.6506C9.49915 45.5532 11.0812 41.6544 13.409 38.2032C15.7367 34.752 18.759 31.8245 22.2825 29.6078L48.3652 12.9841ZM33.4025 105.957C37.3792 107.431 41.7125 107.649 45.8171 106.581C47.6923 106.08 49.4793 105.295 51.1167 104.253L77.1979 87.631C79.3168 86.2978 81.1343 84.5373 82.5341 82.4619C83.934 80.3865 84.8856 78.0418 85.3279 75.5778C85.7749 73.0641 85.7153 70.4864 85.1526 67.9961C84.59 65.5057 83.5356 63.1528 82.0513 61.0754C79.634 57.5907 76.2056 54.9317 72.2289 53.4577C68.2523 51.9836 63.9191 51.7655 59.8145 52.8327C57.9406 53.3334 56.1546 54.1185 54.5186 55.1605L44.5667 61.503C44.0716 61.8178 43.5314 62.0553 42.9647 62.2071C41.728 62.5277 40.4227 62.4612 39.225 62.0166C38.0273 61.5719 36.9948 60.7706 36.2669 59.7207C35.8202 59.0942 35.5029 58.3848 35.3337 57.6341C35.1644 56.8835 35.1466 56.1066 35.2813 55.349C35.4146 54.6069 35.7013 53.9008 36.1229 53.2758C36.5445 52.6508 37.0919 52.1206 37.73 51.719L63.8134 35.0965C64.3083 34.7814 64.8486 34.5439 65.4155 34.3924C66.6517 34.0715 67.9565 34.1378 69.1538 34.5822C70.3511 35.0266 71.3832 35.8277 72.1107 36.8774C72.9075 38.0056 73.2801 39.3791 73.1627 40.7554L73.0734 41.7229L74.0428 42.0171C77.7097 43.1234 81.1606 44.8482 84.2465 47.1171L85.5821 48.0971L86.0733 46.5993C86.3364 45.8026 86.5446 44.9888 86.6966 44.1636C87.1435 41.6499 87.0839 39.0722 86.5212 36.5818C85.9586 34.0914 84.9042 31.7385 83.42 29.6611C81.0027 26.1764 77.5742 23.5175 73.5976 22.0435C69.621 20.5695 65.2878 20.3513 61.1833 21.4185C59.3081 21.9195 57.5207 22.7049 55.8833 23.7472L29.8022 40.3704C27.6831 41.7029 25.8655 43.4631 24.4656 45.5382C23.0657 47.6134 22.1142 49.9578 21.6722 52.4217C21.2252 54.9354 21.2848 57.5131 21.8475 60.0034C22.4101 62.4938 23.4645 64.8467 24.9488 66.9241C27.3661 70.4088 30.7945 73.0677 34.7712 74.5418C38.7478 76.0159 43.081 76.234 47.1856 75.1668C49.0593 74.6659 50.8454 73.8815 52.4821 72.8409L62.4353 66.496C62.9296 66.1812 63.4692 65.9439 64.0353 65.7924C65.272 65.4718 66.5773 65.5383 67.775 65.9829C68.9727 66.4275 70.0052 67.2289 70.7331 68.2788C71.1796 68.9054 71.497 69.6146 71.6665 70.3651C71.8361 71.1156 71.8544 71.8923 71.7206 72.65C71.5867 73.3922 71.2996 74.0984 70.8777 74.7236C70.4557 75.3487 69.9082 75.8791 69.27 76.281L43.1866 92.9028C42.6917 93.2179 42.1514 93.4554 41.5845 93.6069C40.3483 93.9278 39.0435 93.8615 37.8462 93.4171C36.6489 92.9727 35.6168 92.1716 34.8893 91.1219C34.0915 89.9941 33.7188 88.6202 33.8373 87.2438L33.9266 86.2763L32.9572 85.9822C29.2909 84.876 25.8403 83.152 22.7542 80.8844L21.4179 79.9029L20.9267 81.4007C20.663 82.1973 20.4547 83.0111 20.3034 83.8364C19.8565 86.3501 19.9161 88.9278 20.4788 91.4182C21.0414 93.9086 22.0958 96.2615 23.58 98.3389C25.9973 101.824 29.4258 104.483 33.4025 105.957Z"
        fill="#FF3E00" />
</svg>